<svg xmlns="http://www.w3.org/2000/svg" viewBox="0 0 1326.86 235.88"><defs><style>.cls-1{fill:#fff;}</style></defs><title>icuzh</title><g id="Layer_2" data-name="Layer 2"><g id="Layer_1-2" data-name="Layer 1"><path class="cls-1" d="M0,239.65V10.31H77.5V239.65Z" transform="translate(0 -6.9)"/><path class="cls-1" d="M210.23,242.78c-77.51,0-103.66-41.92-103.66-117.95,0-88.55,40.36-117.65,102.37-117.65,19.05,0,41.65,3.13,71,12.83L265.77,85.09C232.18,73.51,221.85,72,210.87,72c-17.11,0-23.25,4.69-23.25,52.25,0,50.69,5.49,53.82,25.51,53.82,11.63,0,23.9-1.88,57.49-16.28l11.94,67C239,241.84,228.31,242.78,210.23,242.78Z" transform="translate(0 -6.9)"/><path class="cls-1" d="M401.73,242.78c-53.61,0-97.53-12.2-97.53-91.67V10.31H382V154.86c0,18.15,1.61,22.53,21.31,22.53,19.05,0,21.31-4.38,21.31-22.53V10.31h74.6v140.8C499.25,217.13,468.57,242.78,401.73,242.78Z" transform="translate(0 -6.9)"/><path class="cls-1" d="M546.49,44.26V67.59H535.72V10.41h33.54v9H546.49V35.22h21.45v9Z" transform="translate(0 -6.9)"/><path class="cls-1" d="M599.21,67.59l-.46-2.89h-.63c-6.39,3.12-9,3.67-11.46,3.67-7.18,0-11.16-3.51-11.16-11.31s4.92-11,11.86-11.78L598.28,44V36.7c0-2-.94-2.89-3.36-2.89a62.2,62.2,0,0,0-15.13,2.81l-1.87-8a65.59,65.59,0,0,1,18.25-3.2c7.26,0,11.23,2.65,11.23,10V67.59Zm-.93-17.24-12,1.17a8.12,8.12,0,0,0-1.41,4.83c0,3.51,1.41,4.92,5.38,4.92a24.07,24.07,0,0,0,8-2Z" transform="translate(0 -6.9)"/><path class="cls-1" d="M635.25,68.37C624,68.37,618,61.81,618,46.76c0-14.59,6.4-21.37,16.93-21.37a45.51,45.51,0,0,1,11.15,1.48l-1.64,8.5a25.3,25.3,0,0,0-8.34-1.64c-5.93,0-8,3.2-8,13,0,10.69,2.26,13.26,8,13.26,1.95,0,3.9-.39,9-2.65l1.72,8.5C640.63,68,637.82,68.37,635.25,68.37Z" transform="translate(0 -6.9)"/><path class="cls-1" d="M680.88,67.59V37.71c0-2.57-.63-3.66-4-3.66a25.68,25.68,0,0,0-10.76,2.73V67.59h-9.52V8.07l9.52-1.17V29.6h.62c6.4-3.51,10.45-4.21,13.73-4.21,6.47,0,9.9,3,9.9,10.14V67.59Z" transform="translate(0 -6.9)"/><path class="cls-1" d="M722.29,67.59H711.76L698.82,26.17h9.67l7.64,25.58a27.53,27.53,0,0,1,.86,5.93h.63a27.53,27.53,0,0,1,.93-5.93L726,26.17h9.21Z" transform="translate(0 -6.9)"/><path class="cls-1" d="M759.27,68.37c-12.48,0-18.49-6.79-18.49-20.67,0-15.37,6.63-22.31,17.63-22.31,9.83,0,15.68,5.46,15.68,16.46a67.4,67.4,0,0,1-.39,7s-15.21.39-22.93.62c0,8.19,2.41,10.45,8.5,10.45,1.56,0,4.13-.15,12.24-2.65l1.72,8.19C766.37,67.59,762.15,68.37,759.27,68.37Zm5.46-28.32c0-5.61-2.26-7.88-6.48-7.88-4.68,0-7.25,2.42-7.33,11.16,5.38-.08,13.73-.24,13.73-.24C764.73,41.77,764.73,40.75,764.73,40.05Z" transform="translate(0 -6.9)"/><path class="cls-1" d="M806.22,35.61a14.76,14.76,0,0,0-3.82-.71c-2.65,0-4.44.63-8.11,2.89v29.8h-9.52V26.17h9.52V30.3h.54c4.69-4.13,6.71-4.91,9.21-4.91a13.92,13.92,0,0,1,3.12.47Z" transform="translate(0 -6.9)"/><path class="cls-1" d="M831.65,68.37c-12.48,0-18.49-6.79-18.49-20.67,0-15.37,6.63-22.31,17.63-22.31,9.83,0,15.68,5.46,15.68,16.46a67.4,67.4,0,0,1-.39,7s-15.21.39-22.93.62c0,8.19,2.42,10.45,8.5,10.45,1.56,0,4.13-.15,12.25-2.65l1.71,8.19C838.75,67.59,834.54,68.37,831.65,68.37Zm5.46-28.32c0-5.61-2.26-7.88-6.47-7.88-4.68,0-7.26,2.42-7.34,11.16,5.39-.08,13.73-.24,13.73-.24C837.11,41.77,837.11,40.75,837.11,40.05Z" transform="translate(0 -6.9)"/><path class="cls-1" d="M861.83,19.54c-3.43,0-5.69-1.95-5.69-5.46s2.26-5.38,5.77-5.38c3.28,0,5.7,1.71,5.7,5.38C867.61,17.51,865.5,19.54,861.83,19.54Zm-4.68,48.05V26.17h9.52V67.59Z" transform="translate(0 -6.9)"/><path class="cls-1" d="M904.34,67.59V37.71c0-2.57-.77-3.66-4-3.66a25.47,25.47,0,0,0-10.77,2.73V67.59h-9.51V26.17h9.51V29.6h.63c6.16-3.51,10.22-4.21,13.73-4.21,6.08,0,9.9,2.57,9.9,10.14V67.59Z" transform="translate(0 -6.9)"/><path class="cls-1" d="M943.81,67.59V10.41h10.77V67.59Z" transform="translate(0 -6.9)"/><path class="cls-1" d="M993,67.59V37.71c0-2.57-.78-3.66-4-3.66a25.39,25.39,0,0,0-10.76,2.73V67.59h-9.52V26.17h9.52V29.6h.62c6.16-3.51,10.22-4.21,13.73-4.21,6.08,0,9.9,2.57,9.9,10.14V67.59Z" transform="translate(0 -6.9)"/><path class="cls-1" d="M1038,15.79a25.14,25.14,0,0,0-4.44-.39c-3.82,0-5.23,1.25-5.23,4.76v6h10.22v8.19h-10.22V67.59h-9.52V34.36H1013V26.17h5.84V21.8c0-9.59,5.46-14.9,14.51-14.9a37.38,37.38,0,0,1,5.23.47Z" transform="translate(0 -6.9)"/><path class="cls-1" d="M1063.54,68.37c-11.31,0-18.57-6.32-18.57-21.45,0-15.53,7.57-21.53,18.72-21.53,10.46,0,18.49,5.46,18.49,21.53C1082.18,61.81,1075.08,68.37,1063.54,68.37Zm.08-35.34c-5.54,0-8.51,2.26-8.51,13.89,0,11.23,2.66,13.8,8.51,13.8,5.69,0,8.42-2.49,8.42-13.73C1072,35.06,1068.84,33,1063.62,33Z" transform="translate(0 -6.9)"/><path class="cls-1" d="M1114.32,35.61a14.82,14.82,0,0,0-3.83-.71c-2.65,0-4.44.63-8.11,2.89v29.8h-9.51V26.17h9.51V30.3h.55c4.68-4.13,6.71-4.91,9.2-4.91a13.84,13.84,0,0,1,3.12.47Z" transform="translate(0 -6.9)"/><path class="cls-1" d="M1169,67.59V37.71c0-2.65-.62-3.66-3.66-3.66-2.34,0-5.15.7-9.36,2.73V67.59h-9.52V37.71c0-2.73-.78-3.66-3.43-3.66a24.46,24.46,0,0,0-9.52,2.73V67.59H1124V26.17h9.51V29.6h.7c6.4-3.51,10.07-4.21,13.5-4.21,3.74,0,6.08,1,7.18,4.37h.7c6.39-3.75,9.83-4.37,13.26-4.37,6.86,0,9.67,3.43,9.67,10.29V67.59Z" transform="translate(0 -6.9)"/><path class="cls-1" d="M1212.59,67.59l-.46-2.89h-.63c-6.39,3.12-9,3.67-11.46,3.67-7.18,0-11.16-3.51-11.16-11.31s4.92-11,11.86-11.78L1211.66,44V36.7c0-2-.94-2.89-3.36-2.89a62.2,62.2,0,0,0-15.13,2.81l-1.87-8a65.59,65.59,0,0,1,18.25-3.2c7.26,0,11.24,2.65,11.24,10V67.59Zm-.93-17.24-12,1.17a8.12,8.12,0,0,0-1.41,4.83c0,3.51,1.41,4.92,5.38,4.92a24.07,24.07,0,0,0,8-2Z" transform="translate(0 -6.9)"/><path class="cls-1" d="M1246.52,68.37c-6.7,0-9.51-3.28-9.51-10.53V34.36h-5.54V26.17H1237V17.43l9.51-1.64V26.17h11.55v8.19h-11.55V57.21c0,1.64.63,2.26,2.11,2.26,1.33,0,3-.31,9.28-2.8l1.56,8.26C1251.75,68.05,1249.1,68.37,1246.52,68.37Z" transform="translate(0 -6.9)"/><path class="cls-1" d="M1274.13,19.54c-3.43,0-5.69-1.95-5.69-5.46s2.26-5.38,5.77-5.38c3.28,0,5.7,1.71,5.7,5.38C1279.91,17.51,1277.8,19.54,1274.13,19.54Zm-4.68,48.05V26.17H1279V67.59Z" transform="translate(0 -6.9)"/><path class="cls-1" d="M1313.68,42.08l8.11,14.43c.94,1.72,1.48,2,2.73,2a7.8,7.8,0,0,0,1.56-.16v9.21a17.87,17.87,0,0,1-2.88.23c-4.14,0-6.48-1.32-8.82-5.69l-6.86-12.72-5.93,7V67.59h-9.21V8.07l9.21-1.17v38h.62a32.42,32.42,0,0,1,4.37-6.79L1317,25.93l9.9.47Z" transform="translate(0 -6.9)"/><path class="cls-1" d="M556.31,154.37c-12.63,0-21-4.61-21-21.14V96.41H546v36.82c0,8.19,2.57,11.85,10.45,11.85,7.49,0,10.76-3,10.76-11.85V96.41h10.38v36.82C577.61,148.21,570.12,154.37,556.31,154.37Z" transform="translate(0 -6.9)"/><path class="cls-1" d="M615.67,153.59V123.71c0-2.57-.78-3.66-4-3.66a25.43,25.43,0,0,0-10.76,2.73v30.81h-9.52V112.17h9.52v3.43h.62c6.16-3.51,10.22-4.21,13.73-4.21,6.09,0,9.91,2.57,9.91,10.14v32.06Z" transform="translate(0 -6.9)"/><path class="cls-1" d="M643.05,105.54c-3.43,0-5.7-2-5.7-5.46s2.27-5.39,5.78-5.39c3.27,0,5.69,1.72,5.69,5.39C648.82,103.51,646.71,105.54,643.05,105.54Zm-4.68,48.05V112.17h9.51v41.42Z" transform="translate(0 -6.9)"/><path class="cls-1" d="M680,153.59H669.49l-13-41.42h9.67l7.65,25.58a28.09,28.09,0,0,1,.86,5.93h.62a27.62,27.62,0,0,1,.94-5.93l7.41-25.58h9.2Z" transform="translate(0 -6.9)"/><path class="cls-1" d="M717,154.37c-12.48,0-18.48-6.79-18.48-20.67,0-15.37,6.63-22.31,17.62-22.31,9.83,0,15.68,5.46,15.68,16.46a67.4,67.4,0,0,1-.39,7s-15.21.39-22.93.62c0,8.19,2.42,10.45,8.5,10.45,1.56,0,4.14-.15,12.25-2.65l1.72,8.19C724.09,153.59,719.88,154.37,717,154.37Zm5.46-28.32c0-5.61-2.26-7.88-6.47-7.88-4.68,0-7.26,2.42-7.33,11.16,5.38-.08,13.72-.24,13.72-.24C722.45,127.77,722.45,126.75,722.45,126.05Z" transform="translate(0 -6.9)"/><path class="cls-1" d="M764,121.61a14.83,14.83,0,0,0-3.82-.71c-2.66,0-4.45.63-8.12,2.89v29.8H742.5V112.17H752v4.13h.55c4.68-4.13,6.71-4.91,9.2-4.91a13.84,13.84,0,0,1,3.12.47Z" transform="translate(0 -6.9)"/><path class="cls-1" d="M784.54,154.37c-3.43,0-6.4-.47-13.81-2.5l1.8-7.88c8.42,2.26,10.68,2.65,12.87,2.65,3.12,0,5.22-1.17,5.22-4.29,0-2.65-1.09-3.66-5.38-5.22l-6.32-2.26c-4.83-1.72-7.72-4.84-7.72-9.91,0-9,6.79-13.57,15.52-13.57a57.68,57.68,0,0,1,11.63,1.32l-1.64,8c-6.71-1.41-8.66-1.64-10.92-1.64-3.2,0-5.39,1.33-5.39,4.68,0,2.26.86,2.81,5.15,4.45l6.4,2.34c4.68,1.71,7.8,4.75,7.8,10.76C799.75,149.92,793.59,154.37,784.54,154.37Z" transform="translate(0 -6.9)"/><path class="cls-1" d="M814.72,105.54c-3.43,0-5.69-2-5.69-5.46s2.26-5.39,5.77-5.39c3.28,0,5.7,1.72,5.7,5.39C820.5,103.51,818.39,105.54,814.72,105.54ZM810,153.59V112.17h9.52v41.42Z" transform="translate(0 -6.9)"/><path class="cls-1" d="M845.38,154.37c-6.71,0-9.52-3.28-9.52-10.53V120.36h-5.54v-8.19h5.54v-8.74l9.52-1.64v10.38h11.54v8.19H845.38v22.85c0,1.64.62,2.26,2.1,2.26,1.33,0,3-.31,9.29-2.8l1.56,8.26C850.6,154.05,848,154.37,845.38,154.37Z" transform="translate(0 -6.9)"/><path class="cls-1" d="M889.21,153.59l-.47-2.89h-.62c-6.4,3.12-9,3.67-11.47,3.67-7.17,0-11.15-3.51-11.15-11.31,0-7.65,4.91-11,11.86-11.78L888.28,130V122.7c0-2-.94-2.89-3.36-2.89a62.12,62.12,0,0,0-15.13,2.81l-1.87-8a65.88,65.88,0,0,1,18.25-3.19c7.25,0,11.23,2.65,11.23,10v32.22Zm-14.12-46.26c-3,0-4.75-1.64-4.75-4.83s1.87-4.84,4.75-4.84,4.76,1.48,4.76,4.84C879.85,105.62,878.14,107.33,875.09,107.33Zm13.19,29-12,1.17a8.18,8.18,0,0,0-1.4,4.83c0,3.51,1.4,4.92,5.38,4.92a24.07,24.07,0,0,0,8-2Zm2.26-29c-2.89,0-4.76-1.64-4.76-4.83s1.87-4.84,4.84-4.84c2.65,0,4.68,1.48,4.68,4.84C895.3,105.62,893.58,107.33,890.54,107.33Z" transform="translate(0 -6.9)"/><path class="cls-1" d="M923.14,154.37c-6.71,0-9.51-3.28-9.51-10.53V120.36h-5.54v-8.19h5.54v-8.74l9.51-1.64v10.38h11.55v8.19H923.14v22.85c0,1.64.63,2.26,2.11,2.26,1.32,0,3-.31,9.28-2.8l1.56,8.26C928.37,154.05,925.72,154.37,923.14,154.37Z" transform="translate(0 -6.9)"/><path class="cls-1" d="M958.47,153.59v-9.91l27.46-38.3H961l-.86-9h37v9.83l-27.53,38.38h26.83l.7,9Z" transform="translate(0 -6.9)"/><path class="cls-1" d="M1031.4,153.59v-3.51h-.54c-6.4,3.43-10,4.29-13.81,4.29-6.86,0-9.91-3.28-9.91-10.45V112.17h9.52v30c0,2.42.63,3.59,3.9,3.59A21.51,21.51,0,0,0,1031,143V112.17h9.52v41.42Zm-15.28-46.26c-3,0-4.76-1.64-4.76-4.83s1.87-4.84,4.76-4.84c2.73,0,4.75,1.48,4.75,4.84C1020.87,105.62,1019.16,107.33,1016.12,107.33Zm15.44,0c-2.89,0-4.76-1.64-4.76-4.83s1.87-4.84,4.84-4.84c2.65,0,4.68,1.48,4.68,4.84C1036.32,105.62,1034.6,107.33,1031.56,107.33Z" transform="translate(0 -6.9)"/><path class="cls-1" d="M1075.4,121.61a14.82,14.82,0,0,0-3.83-.71c-2.65,0-4.44.63-8.11,2.89v29.8h-9.52V112.17h9.52v4.13h.55c4.68-4.13,6.7-4.91,9.2-4.91a13.84,13.84,0,0,1,3.12.47Z" transform="translate(0 -6.9)"/><path class="cls-1" d="M1089.75,105.54c-3.44,0-5.7-2-5.7-5.46s2.26-5.39,5.77-5.39c3.28,0,5.7,1.72,5.7,5.39C1095.52,103.51,1093.41,105.54,1089.75,105.54Zm-4.68,48.05V112.17h9.51v41.42Z" transform="translate(0 -6.9)"/><path class="cls-1" d="M1122.51,154.37c-11.24,0-17.24-6.56-17.24-21.61,0-14.59,6.39-21.37,16.92-21.37a45.52,45.52,0,0,1,11.16,1.48l-1.64,8.5a25.3,25.3,0,0,0-8.35-1.64c-5.92,0-7.95,3.2-7.95,13,0,10.69,2.26,13.26,7.95,13.26,2,0,3.9-.39,9.05-2.65l1.72,8.5C1127.89,154,1125.08,154.37,1122.51,154.37Z" transform="translate(0 -6.9)"/><path class="cls-1" d="M1168.13,153.59V123.71c0-2.57-.62-3.66-4-3.66a25.76,25.76,0,0,0-10.77,2.73v30.81h-9.51V94.07l9.51-1.17v22.7h.63c6.39-3.51,10.45-4.21,13.73-4.21,6.47,0,9.9,3,9.9,10.14v32.06Z" transform="translate(0 -6.9)"/><path class="cls-1" d="M577.22,231.59h-9.6l-7.48-25.9a26.23,26.23,0,0,1-1-5h-.62a25.69,25.69,0,0,1-.94,5l-7.49,25.9h-9.59l-9.36-41.42h9.36l4.76,24.57a46.2,46.2,0,0,1,.78,5.38h.54a30.61,30.61,0,0,1,1.1-5.38l6.7-23.48H564l6.63,23.48a28.4,28.4,0,0,1,1,5.38h.62a46.2,46.2,0,0,1,.78-5.38l5.07-24.57h8.66Z" transform="translate(0 -6.9)"/><path class="cls-1" d="M638.76,231.59h-9.59l-7.49-25.9a26.23,26.23,0,0,1-1-5H620a25.69,25.69,0,0,1-.94,5l-7.49,25.9H602l-9.36-41.42H602l4.76,24.57a46.2,46.2,0,0,1,.78,5.38h.54a30.61,30.61,0,0,1,1.1-5.38l6.7-23.48h9.68l6.63,23.48a28.4,28.4,0,0,1,1,5.38h.62a46.76,46.76,0,0,1,.79-5.38l5.07-24.57h8.65Z" transform="translate(0 -6.9)"/><path class="cls-1" d="M700.3,231.59h-9.59l-7.49-25.9a26.23,26.23,0,0,1-1-5h-.62a25.69,25.69,0,0,1-.94,5l-7.48,25.9h-9.6l-9.36-41.42h9.36l4.76,24.57a46.2,46.2,0,0,1,.78,5.38h.55a30.39,30.39,0,0,1,1.09-5.38l6.71-23.48h9.67l6.63,23.48a28.4,28.4,0,0,1,1,5.38h.63a46.2,46.2,0,0,1,.78-5.38l5.07-24.57h8.65Z" transform="translate(0 -6.9)"/><path class="cls-1" d="M720,232.21c-3.66,0-6-2.11-6-5.77s2.41-5.7,6-5.7,6.09,1.8,6.09,5.7C726.12,230,723.93,232.21,720,232.21Z" transform="translate(0 -6.9)"/><path class="cls-1" d="M742.57,183.54c-3.43,0-5.69-1.95-5.69-5.46s2.26-5.39,5.77-5.39c3.28,0,5.7,1.72,5.7,5.39C748.35,181.51,746.24,183.54,742.57,183.54Zm-4.68,48.05V190.17h9.52v41.42Z" transform="translate(0 -6.9)"/><path class="cls-1" d="M775.33,232.37c-11.23,0-17.24-6.56-17.24-21.61,0-14.59,6.4-21.37,16.93-21.37a45.52,45.52,0,0,1,11.16,1.48l-1.64,8.5a25.3,25.3,0,0,0-8.35-1.64c-5.93,0-8,3.2-8,13,0,10.69,2.27,13.26,8,13.26,1.95,0,3.9-.39,9-2.65l1.72,8.5C780.71,232,777.91,232.37,775.33,232.37Z" transform="translate(0 -6.9)"/><path class="cls-1" d="M820.88,231.59v-3.51h-.54c-6.4,3.43-10,4.29-13.81,4.29-6.86,0-9.9-3.28-9.9-10.45V190.17h9.51v30c0,2.42.63,3.59,3.9,3.59A21.58,21.58,0,0,0,820.5,221V190.17H830v41.42Z" transform="translate(0 -6.9)"/><path class="cls-1" d="M840.31,231.59v-8.51l20.74-25H842.8l-.54-7.88h29.56v8.5l-20.75,25h19.81l1,7.88Z" transform="translate(0 -6.9)"/><path class="cls-1" d="M907.31,231.59V201.71c0-2.57-.63-3.66-4-3.66a25.68,25.68,0,0,0-10.76,2.73v30.81h-9.52V172.07l9.52-1.17v22.7h.62c6.4-3.51,10.45-4.21,13.73-4.21,6.47,0,9.91,3,9.91,10.14v32.06Z" transform="translate(0 -6.9)"/><path class="cls-1" d="M934.37,232.21c-3.66,0-6-2.11-6-5.77s2.42-5.7,6-5.7,6.09,1.8,6.09,5.7C940.46,230,938.27,232.21,934.37,232.21Z" transform="translate(0 -6.9)"/><path class="cls-1" d="M966.74,232.37c-11.23,0-17.24-6.56-17.24-21.61,0-14.59,6.4-21.37,16.93-21.37a45.46,45.46,0,0,1,11.15,1.48l-1.63,8.5a25.39,25.39,0,0,0-8.35-1.64c-5.93,0-8,3.2-8,13,0,10.69,2.27,13.26,8,13.26,1.95,0,3.9-.39,9-2.65l1.71,8.5C972.12,232,969.32,232.37,966.74,232.37Z" transform="translate(0 -6.9)"/><path class="cls-1" d="M1012.37,231.59V201.71c0-2.57-.62-3.66-4-3.66a25.72,25.72,0,0,0-10.76,2.73v30.81h-9.52V172.07l9.52-1.17v22.7h.62c6.4-3.51,10.46-4.21,13.73-4.21,6.48,0,9.91,3,9.91,10.14v32.06Z" transform="translate(0 -6.9)"/></g></g></svg>